<?xml version="1.0" encoding="UTF-8"?>
<svg width="159px" height="28px" viewBox="0 0 159 28" version="1.1" xmlns="http://www.w3.org/2000/svg" xmlns:xlink="http://www.w3.org/1999/xlink">
    <title>Trifecta 3M 001 Lockup CMYK Pos</title>
    <g id="Page-1" stroke="none" stroke-width="1" fill="none" fill-rule="evenodd">
        <g id="Trifecta-3M-001-Lockup-CMYK-Pos" fill-rule="nonzero">
            <path d="M38.8392506,0.57806045 L35.2784035,15.1177677 L31.7059069,0.57806045 L21.2291725,0.57806045 L21.2291725,5.9466876 C19.9710324,1.24816485 15.5325937,0.067690234 11.4203395,0.0014589847 C6.41107806,-0.0647722646 1.15717823,2.11306705 0.963020811,8.75956772 L7.89444076,8.75956772 C7.89444076,6.75315046 9.42828439,5.60384349 11.1562854,5.63111518 C13.2764845,5.61553136 14.2550379,6.52328907 14.3055188,7.94141699 C14.231739,9.16864309 13.5094734,10.0257534 11.171818,10.0257534 L8.84192897,10.0257534 L8.84192897,14.8528427 L10.9582449,14.8528427 C12.1581377,14.8528427 13.8317747,15.5073632 13.8977882,17.2254798 C13.9793343,19.2708566 12.558102,20.1747183 10.8145684,20.1903022 C7.69640019,20.0773194 7.19159089,17.6696187 7.19159089,15.6047621 L0,15.6047621 C0.0310651874,16.9956184 -0.310651874,26.0654036 10.9660112,25.9991723 C16.3674706,26.0498198 20.1380078,23.7706856 21.2447051,20.6305452 L21.2447051,25.4420506 L28.3431004,25.4420506 L28.3431004,9.76082837 L32.179651,25.4459466 L38.3810391,25.4459466 L42.2331223,9.7764122 L42.2331223,25.4615304 L49.3121019,25.4615304 L49.3121019,0.57806045 L38.8392506,0.57806045 Z M21.2485882,15.0827041 C20.3671135,13.2477089 19.124506,12.4451419 18.4216562,12.1919048 C19.8894863,11.5373842 20.6622328,10.6491063 21.2485882,8.8764464 L21.2485882,15.0827041 Z" id="Shape" fill="#FF0000"></path>
            <g id="Group" transform="translate(56.356688, 0.000000)" fill="#000000">
                <g>
                    <path d="M5.8983351,3.38333333 C5.80119519,2.85444444 5.36600841,2.02222222 4.14593119,2.02222222 C3.23670167,2.02222222 2.63831985,2.60555556 2.63831985,3.24722222 C2.63831985,3.77611111 2.97636672,4.2 3.68354524,4.33611111 L5.02796154,4.59666667 C6.78036544,4.93888889 7.72067973,6.08222222 7.72067973,7.43944444 C7.72067973,8.925 6.48117453,10.4183333 4.2391855,10.4183333 C1.68246317,10.4183333 0.555640263,8.76944444 0.404102009,7.39666667 L2.14484913,6.93388889 C2.22644665,7.89055556 2.8908836,8.74611111 4.25084229,8.74611111 C5.25721172,8.74611111 5.81285198,8.24055556 5.81285198,7.56 C5.81285198,7.00388889 5.39320758,6.56444444 4.64328751,6.41666667 L3.29498561,6.14444444 C1.7601751,5.83333333 0.769348056,4.83777778 0.769348056,3.38333333 C0.769348056,1.66833333 2.30415857,0.361666667 4.12650321,0.361666667 C6.46563215,0.361666667 7.36320488,1.77722222 7.58079827,2.87 L5.8983351,3.38333333 Z" id="Path"></path>
                    <path d="M10.3589996,6.86777778 C10.3589996,8.08111111 11.1477756,8.76166667 12.0725475,8.76166667 C12.9973194,8.76166667 13.4597054,8.14722222 13.607358,7.63388889 L15.1965669,8.16277778 C14.897376,9.27888889 13.8521506,10.4222222 12.0725475,10.4222222 C10.0986646,10.4222222 8.54831173,8.925 8.54831173,6.87166667 C8.54831173,4.80277778 10.0714655,3.31722222 12.0142636,3.31722222 C13.8366082,3.31722222 14.8701768,4.445 15.1538253,5.57666667 L13.5335317,6.12111111 C13.3703367,5.565 12.9506923,4.99333333 12.0531195,4.99333333 C11.1361188,4.98944444 10.3589996,5.65833333 10.3589996,6.86777778 Z" id="Path"></path>
                    <path d="M17.3064457,0.202222222 C17.9320267,0.202222222 18.4216118,0.707777778 18.4216118,1.33 C18.4216118,1.92888889 17.9320267,2.43055556 17.3064457,2.43055556 C16.6964071,2.43055556 16.1912795,1.92888889 16.1912795,1.33 C16.1912795,0.703888889 16.6964071,0.202222222 17.3064457,0.202222222 Z M16.4088729,10.2161111 L16.4088729,3.52333333 L18.2156752,3.52333333 L18.2156752,10.2161111 L16.4088729,10.2161111 Z" id="Shape"></path>
                    <path d="M26.0762364,8.29888889 C25.7381895,9.45388889 24.6774217,10.4183333 23.0299289,10.4183333 C21.1959275,10.4183333 19.5756339,9.1 19.5756339,6.84055556 C19.5756339,4.70166667 21.1531859,3.31333333 22.8667339,3.31333333 C24.9338711,3.31333333 26.1733763,4.63555556 26.1733763,6.78222222 C26.1733763,7.04277778 26.1461771,7.315 26.1461771,7.34222222 L21.3591225,7.34222222 C21.3979785,8.225 22.1478986,8.86666667 23.0454713,8.86666667 C23.8886457,8.86666667 24.3510317,8.44666667 24.568625,7.84777778 L26.0762364,8.29888889 Z M24.3898876,6.10555556 C24.3626884,5.44055556 23.9275017,4.78722222 22.8939331,4.78722222 C21.9575044,4.78722222 21.4407201,5.495 21.3979785,6.10555556 L24.3898876,6.10555556 Z" id="Shape"></path>
                    <path d="M29.2546541,10.2161111 L27.4478519,10.2161111 L27.4478519,3.52333333 L29.2002558,3.52333333 L29.2002558,4.35166667 C29.6082434,3.65555556 30.4086762,3.34833333 31.1313971,3.34833333 C32.7905467,3.34833333 33.5521236,4.53055556 33.5521236,6.00055556 L33.5521236,10.2161111 L31.7453213,10.2161111 L31.7453213,6.30777778 C31.7453213,5.56111111 31.3800753,4.97388889 30.5097017,4.97388889 C29.7209257,4.97388889 29.2585397,5.58833333 29.2585397,6.36222222 L29.2585397,10.2161111 L29.2546541,10.2161111 Z" id="Path"></path>
                    <path d="M36.4896343,6.86777778 C36.4896343,8.08111111 37.2784103,8.76166667 38.2031823,8.76166667 C39.1279542,8.76166667 39.5903401,8.14722222 39.7379928,7.63388889 L41.3272016,8.16277778 C41.0280107,9.27888889 39.9827853,10.4222222 38.1992967,10.4222222 C36.2254138,10.4222222 34.6789465,8.925 34.6789465,6.87166667 C34.6789465,4.80277778 36.2021002,3.31722222 38.1448983,3.31722222 C39.9672429,3.31722222 41.0008115,4.445 41.2844601,5.57666667 L39.6641664,6.12111111 C39.5009714,5.565 39.081327,4.99333333 38.1837543,4.99333333 C37.2667536,4.98944444 36.4896343,5.65833333 36.4896343,6.86777778 Z" id="Path"></path>
                    <path d="M48.550525,8.29888889 C48.2085926,9.45388889 47.1478248,10.4183333 45.5042176,10.4183333 C43.6702162,10.4183333 42.0499225,9.1 42.0499225,6.84055556 C42.0499225,4.70166667 43.6274746,3.31333333 45.3410226,3.31333333 C47.4081598,3.31333333 48.6437794,4.63555556 48.6437794,6.78222222 C48.6437794,7.04277778 48.6165802,7.315 48.6165802,7.34222222 L43.8295256,7.34222222 C43.8722672,8.225 44.6183017,8.86666667 45.5158744,8.86666667 C46.3590488,8.86666667 46.8214347,8.44666667 47.0390281,7.84777778 L48.550525,8.29888889 Z M46.8641763,6.10555556 C46.8369771,5.44055556 46.4017903,4.78722222 45.3682217,4.78722222 C44.431793,4.78722222 43.9150087,5.495 43.8722672,6.10555556 L46.8641763,6.10555556 Z" id="Shape"></path>
                    <path d="M50.9829083,7.83611111 C51.6745444,7.83611111 52.2340703,8.39222222 52.2340703,9.07666667 C52.2340703,9.75333333 51.6745444,10.3133333 50.9829083,10.3133333 C50.302929,10.3133333 49.7472887,9.75333333 49.7472887,9.07666667 C49.7472887,8.39222222 50.302929,7.83611111 50.9829083,7.83611111 Z" id="Path"></path>
                    <path d="M6.83864939,22.9988889 L2.92196837,22.9988889 L2.12153555,25.2038889 L0.135995868,25.2038889 L3.83508349,15.5555556 L6.01101739,15.5555556 L9.67902024,25.2038889 L7.63908221,25.2038889 L6.83864939,22.9988889 Z M3.54754937,21.2838889 L6.21306839,21.2838889 L4.88030888,17.6361111 L3.54754937,21.2838889 Z" id="Shape"></path>
                    <path d="M10.6853897,27.79 L10.6853897,18.5072222 L12.4416792,18.5072222 L12.4416792,19.3238889 C12.7408701,18.8066667 13.4869046,18.3555556 14.493274,18.3555556 C16.4516145,18.3555556 17.5784374,19.8527778 17.5784374,21.84 C17.5784374,23.8661111 16.3156186,25.3672222 14.4233333,25.3672222 C13.4985613,25.3672222 12.818582,24.9977778 12.4921919,24.5505556 L12.4921919,27.79 L10.6853897,27.79 Z M14.1396847,19.9772222 C13.2149128,19.9772222 12.4688783,20.6733333 12.4688783,21.8555556 C12.4688783,23.0377778 13.2149128,23.7455556 14.1396847,23.7455556 C15.0644566,23.7455556 15.7988343,23.0533333 15.7988343,21.8555556 C15.7949487,20.6694444 15.0644566,19.9772222 14.1396847,19.9772222 Z" id="Shape"></path>
                    <path d="M18.775201,27.79 L18.775201,18.5072222 L20.5314905,18.5072222 L20.5314905,19.3238889 C20.8306815,18.8066667 21.5767159,18.3555556 22.5830854,18.3555556 C24.5414259,18.3555556 25.6682488,19.8527778 25.6682488,21.84 C25.6682488,23.8661111 24.40543,25.3672222 22.5131446,25.3672222 C21.5883727,25.3672222 20.9083934,24.9977778 20.5858889,24.5505556 L20.5858889,27.79 L18.775201,27.79 Z M22.2294961,19.9772222 C21.3047242,19.9772222 20.5586897,20.6733333 20.5586897,21.8555556 C20.5586897,23.0377778 21.3047242,23.7455556 22.2294961,23.7455556 C23.154268,23.7455556 23.8886457,23.0533333 23.8886457,21.8555556 C23.8886457,20.6694444 23.154268,19.9772222 22.2294961,19.9772222 Z" id="Shape"></path>
                    <polygon id="Path" points="26.8922116 25.2 26.8922116 15.3494444 28.7028994 15.3494444 28.7028994 25.2"></polygon>
                    <path d="M31.4577872,15.1861111 C32.0833682,15.1861111 32.5729533,15.6916667 32.5729533,16.3138889 C32.5729533,16.9127778 32.0833682,17.4144444 31.4577872,17.4144444 C30.843863,17.4144444 30.3426211,16.9127778 30.3426211,16.3138889 C30.3426211,15.6916667 30.8477486,15.1861111 31.4577872,15.1861111 Z M30.5641,25.2 L30.5641,18.5072222 L32.3709023,18.5072222 L32.3709023,25.2 L30.5641,25.2 Z" id="Shape"></path>
                    <path d="M40.2819762,23.2827778 C39.9439294,24.4416667 38.8831616,25.4061111 37.2356688,25.4061111 C35.4016674,25.4061111 33.7813737,24.0877778 33.7813737,21.8283333 C33.7813737,19.6894444 35.3589258,18.3011111 37.0724737,18.3011111 C39.1396109,18.3011111 40.3752306,19.6233333 40.3752306,21.77 C40.3752306,22.0305556 40.3480314,22.3027778 40.3480314,22.33 L35.5648624,22.33 C35.607604,23.2127778 36.3536384,23.8544444 37.2512112,23.8544444 C38.0943856,23.8544444 38.5567715,23.4344444 38.7743649,22.8355556 L40.2819762,23.2827778 Z M38.5995131,21.0933333 C38.5723139,20.4283333 38.1371271,19.775 37.1035585,19.775 C36.1632442,19.775 35.6464599,20.4827778 35.607604,21.0933333 L38.5995131,21.0933333 Z" id="Shape"></path>
                    <path d="M48.1697366,23.9905556 C48.1697366,24.4416667 48.1969358,24.9316667 48.224135,25.2038889 L46.4950446,25.2038889 C46.4678455,25.0677778 46.4289895,24.7411111 46.4289895,24.43 C46.1297986,24.9588889 45.4498192,25.3711111 44.5522465,25.3711111 C42.6483044,25.3711111 41.2883457,23.8738889 41.2883457,21.8438889 C41.2883457,19.8838889 42.6094484,18.3438889 44.4978482,18.3438889 C45.6518703,18.3438889 46.1958537,18.8222222 46.3862479,19.1761111 L46.3862479,15.3494444 L48.1697366,15.3494444 L48.1697366,23.9905556 Z M44.7698399,23.7455556 C45.6946118,23.7455556 46.4134471,23.0377778 46.4134471,21.8283333 C46.4134471,20.6344444 45.6907262,19.9655556 44.7698399,19.9655556 C43.845068,19.9655556 43.1106903,20.6461111 43.1106903,21.8438889 C43.1106903,23.0377778 43.8178688,23.7455556 44.7698399,23.7455556 Z" id="Shape"></path>
                    <path d="M55.2803777,18.5072222 L56.624794,18.5072222 L56.624794,20.1133333 L55.2803777,20.1133333 L55.2803777,22.9133333 C55.2803777,23.5005556 55.5523695,23.6911111 56.0691538,23.6911111 C56.2867472,23.6911111 56.5315397,23.6638889 56.624794,23.6366667 L56.624794,25.1338889 C56.461599,25.2 56.1352089,25.2972222 55.6067678,25.2972222 C54.3012075,25.2972222 53.4852323,24.5194444 53.4852323,23.2244444 L53.4852323,20.1133333 L52.2768118,20.1133333 L52.2768118,18.5072222 L52.6187443,18.5072222 C53.3259228,18.5072222 53.6523129,18.0444444 53.6523129,17.4455556 L53.6523129,16.5044444 L55.2842633,16.5044444 L55.2842633,18.5072222 L55.2803777,18.5072222 Z" id="Path"></path>
                    <path d="M64.5397536,21.8555556 C64.5397536,23.9088889 63.0321422,25.4061111 61.0310602,25.4061111 C59.0338637,25.4061111 57.5262524,23.9088889 57.5262524,21.8555556 C57.5262524,19.7866667 59.0338637,18.3011111 61.0310602,18.3011111 C63.0282566,18.3011111 64.5397536,19.7866667 64.5397536,21.8555556 Z M62.7329513,21.8555556 C62.7329513,20.5877778 61.9169761,19.95 61.0310602,19.95 C60.1490298,19.95 59.3330546,20.5877778 59.3330546,21.8555556 C59.3330546,23.1077778 60.1490298,23.7572222 61.0310602,23.7572222 C61.9169761,23.7572222 62.7329513,23.1194444 62.7329513,21.8555556 Z" id="Shape"></path>
                    <polygon id="Path" points="68.5108329 25.2 68.5108329 15.5555556 70.3875759 15.5555556 70.3875759 23.4033333 74.6811598 23.4033333 74.6811598 25.2 68.5108329 25.2"></polygon>
                    <path d="M76.8182377,15.1861111 C77.4438187,15.1861111 77.9295182,15.6916667 77.9295182,16.3138889 C77.9295182,16.9127778 77.4399331,17.4144444 76.8182377,17.4144444 C76.2043135,17.4144444 75.7030716,16.9127778 75.7030716,16.3138889 C75.699186,15.6916667 76.2043135,15.1861111 76.8182377,15.1861111 Z M75.9167794,25.2 L75.9167794,18.5072222 L77.7274672,18.5072222 L77.7274672,25.2 L75.9167794,25.2 Z" id="Shape"></path>
                    <path d="M81.9938519,17.7722222 L81.9938519,18.5072222 L83.5014632,18.5072222 L83.5014632,20.0588889 L81.9938519,20.0588889 L81.9938519,25.2 L80.1715073,25.2 L80.1715073,20.0588889 L79.0563411,20.0588889 L79.0563411,18.5072222 L80.1715073,18.5072222 L80.1715073,17.745 C80.1715073,16.2322222 81.1234783,15.2561111 82.6038905,15.2561111 C82.9846789,15.2561111 83.3538106,15.3222222 83.5014632,15.3922222 L83.5014632,16.9166667 C83.4043233,16.8855556 83.2294715,16.8466667 82.9302806,16.8466667 C82.5261786,16.8466667 81.9938519,17.0255556 81.9938519,17.7722222 Z" id="Path"></path>
                    <path d="M90.4255958,23.2827778 C90.0836633,24.4416667 89.0228955,25.4061111 87.3792883,25.4061111 C85.5452869,25.4061111 83.9249932,24.0877778 83.9249932,21.8283333 C83.9249932,19.6894444 85.4986597,18.3011111 87.2160933,18.3011111 C89.2832305,18.3011111 90.5188501,19.6233333 90.5188501,21.77 C90.5188501,22.0305556 90.4916509,22.3027778 90.4916509,22.33 L85.7045963,22.33 C85.7434523,23.2127778 86.4933724,23.8544444 87.3909451,23.8544444 C88.2341195,23.8544444 88.6965054,23.4344444 88.9140988,22.8355556 L90.4255958,23.2827778 Z M88.739247,21.0933333 C88.7120478,20.4283333 88.276861,19.775 87.2432924,19.775 C86.3068637,19.775 85.7900794,20.4827778 85.7473379,21.0933333 L88.739247,21.0933333 Z" id="Shape"></path>
                    <path d="M92.857979,22.8238889 C93.5496151,22.8238889 94.109141,23.38 94.109141,24.0605556 C94.109141,24.7411111 93.5496151,25.3011111 92.857979,25.3011111 C92.1779997,25.3011111 91.6223594,24.7411111 91.6223594,24.0605556 C91.6223594,23.38 92.1779997,22.8238889 92.857979,22.8238889 Z" id="Path"></path>
                </g>
                <g transform="translate(94.031429, 15.555556)" id="Path">
                    <polygon points="3.05019305 2.94388889 3.05019305 0 3.83119789 0 4.69380026 2.135 5.53697465 0 6.32186509 0 6.32186509 2.94388889 5.75845363 2.94388889 5.75845363 0.898333333 4.93082163 2.94388889 4.43735091 2.94388889 3.60971891 0.902222222 3.60971891 2.94388889"></polygon>
                    <polygon points="0.0777119248 0 2.51786637 0 2.51786637 0.548333333 1.58532327 0.548333333 1.58532327 2.94388889 1.00636943 2.94388889 1.00636943 0.548333333 0.0777119248 0.548333333"></polygon>
                </g>
            </g>
        </g>
    </g>
</svg>